<svg width="99" height="48" fill="none" xmlns="http://www.w3.org/2000/svg"><rect x="6.21" y="6.06" width="46.61" height="28.28" rx="2" stroke="#858C91" stroke-width="2"/><circle cx="24.64" cy="42.62" r="4.27" stroke="#858C91" stroke-width="2"/><circle cx="82.55" cy="42.62" r="4.27" stroke="#858C91" stroke-width="2"/><path stroke="#3EC227" stroke-width="2" stroke-linecap="round" stroke-linejoin="round" d="M56.77 34.25V6.15"/><path d="M15.2 42.58H5.63a4 4 0 0 1-4-4V5.06a4 4 0 0 1 4-4h57.7a4 4 0 0 1 3.02 1.37l15.37 17.65 7.55 3.1 8.47 11.58v7.82h-7.59v-.44c0-4.2-3.4-7.6-7.6-7.6v0a7.6 7.6 0 0 0-7.6 7.6v.44H33.32" stroke="#858C91" stroke-width="2" stroke-linecap="round" stroke-linejoin="round"/></svg>