<svg width="51" height="25" fill="none" xmlns="http://www.w3.org/2000/svg"><rect x="4.5" y="3.8" width="22.35" height="14.02" rx="2.25" stroke="#858C91" stroke-width="1.5"/><path d="M14.66 22.3c0 1.08-.87 1.95-1.94 1.95a1.95 1.95 0 0 1-1.93-1.95c0-1.08.87-1.96 1.93-1.96 1.07 0 1.94.88 1.94 1.96zM44.2 22.3a1.95 1.95 0 1 1-3.88 0c0-1.08.87-1.96 1.93-1.96 1.07 0 1.94.88 1.94 1.96z" stroke="#858C91" stroke-width="1.5"/><path stroke="#3EC227" stroke-width="1.5" stroke-linecap="round" stroke-linejoin="round" d="M30.54 17.77V3.85"/><path d="M7.91 22.28H3a2 2 0 0 1-2-2V3c0-1.1.9-2 2-2h29.47a2 2 0 0 1 1.51.69l7.54 8.7a2 2 0 0 0 .75.54l2.9 1.19a2 2 0 0 1 .85.67l3.6 4.96a2 2 0 0 1 .38 1.17v1.43c0 1.06-.87 1.93-1.93 1.93v0a1.93 1.93 0 0 1-1.94-1.93v-.2a2 2 0 0 0-2-2H40.4a2 2 0 0 0-2 2v.13a2 2 0 0 1-2 2H17.15" stroke="#858C91" stroke-width="1.5" stroke-linecap="round" stroke-linejoin="round"/></svg>