<svg width="48" height="24" fill="none" xmlns="http://www.w3.org/2000/svg"><path d="M.75 2C.75 1.31 1.31.75 2 .75h27.1c.7 0 1.25.56 1.25 1.25v11.11c0 .7-.56 1.25-1.25 1.25H2c-.69 0-1.25-.56-1.25-1.25V2zM13.44 21.37a1.88 1.88 0 1 1-3.76 0 1.88 1.88 0 0 1 3.76 0zM42.3 21.37a1.88 1.88 0 1 1-3.75 0 1.88 1.88 0 0 1 3.76 0zM35.56 5.15H33.4a.25.25 0 0 1-.25-.25V1.56c0-.14.12-.25.25-.25h.3c.1 0 .18.05.23.13l1.85 3.34c.1.17-.03.37-.22.37z" stroke="#858C91" stroke-width="1.5"/><path stroke="#3EC227" stroke-width="1.5" stroke-linecap="round" stroke-linejoin="round" d="M.75 17.36h29.6"/><path stroke="#858C91" stroke-width="1.5" stroke-linecap="round" stroke-linejoin="round" d="M16.7 20.36h13.65"/><path d="M33.16 19.35V8.95c0-.68.56-1.24 1.25-1.24h2.25c.37 0 .73.17.97.46l3.39 4.16c.28.35.64.62 1.06.8l2.64 1.11c.22.1.42.26.55.46l1.77 2.66c.14.2.21.45.21.7v1.29c0 .7-.56 1.25-1.25 1.25h-.52a1 1 0 0 1-1-1 2.5 2.5 0 0 0-2.51-2.51H38.9a2.5 2.5 0 0 0-2.5 2.5 1 1 0 0 1-1.01 1.01h-.98c-.69 0-1.25-.56-1.25-1.25z" stroke="#858C91" stroke-width="1.5"/><path d="M4.13 12.45a.74.74 0 1 0 0-1.47.74.74 0 0 0 0 1.47zM10.05 12.45a.74.74 0 1 0 0-1.47.74.74 0 0 0 0 1.47zM15.97 12.45a.74.74 0 1 0 0-1.47.74.74 0 0 0 0 1.47zM21.9 12.45a.74.74 0 1 0 0-1.47.74.74 0 0 0 0 1.47zM27.82 12.45a.74.74 0 1 0 0-1.47.74.74 0 0 0 0 1.47z" fill="#858C91" stroke="#858C91" stroke-width=".6"/></svg>