<svg width="113" height="49" fill="none" xmlns="http://www.w3.org/2000/svg"><rect x="1.64" y="1.29" width="76.41" height="30.28" rx="3" stroke="#858C91" stroke-width="2"/><circle cx="23.85" cy="43.1" r="4.27" stroke="#858C91" stroke-width="2"/><circle cx="97.77" cy="43.1" r="4.27" stroke="#858C91" stroke-width="2"/><path d="m84.88 2.42 4.84 8.7h-7.06v-8.7h2.22z" stroke="#858C91" stroke-width="2"/><path stroke="#3EC227" stroke-width="2" stroke-linecap="round" stroke-linejoin="round" d="M1.64 35.58h76.41"/><path stroke="#858C91" stroke-width="2" stroke-linecap="round" stroke-linejoin="round" d="M33.64 39.58h44.41"/><path d="m99.97 25.45.15.2.23.09 7.06 2.98 4.55 6.83v6.51h-6.6a7.6 7.6 0 0 0-15.16 0h-7.52V15.23h8.95l8.34 10.22z" stroke="#858C91" stroke-width="2"/><circle cx="7.11" cy="27.77" r=".88" fill="#858C91"/><circle cx="13.05" cy="27.77" r=".88" fill="#858C91"/><circle cx="18.99" cy="27.77" r=".88" fill="#858C91"/><circle cx="24.93" cy="27.77" r=".88" fill="#858C91"/><circle cx="30.87" cy="27.77" r=".88" fill="#858C91"/><circle cx="36.81" cy="27.77" r=".88" fill="#858C91"/><circle cx="42.75" cy="27.77" r=".88" fill="#858C91"/><circle cx="48.69" cy="27.77" r=".88" fill="#858C91"/><circle cx="54.63" cy="27.77" r=".88" fill="#858C91"/><circle cx="60.57" cy="27.77" r=".88" fill="#858C91"/><circle cx="66.52" cy="27.77" r=".88" fill="#858C91"/><circle cx="72.46" cy="27.77" r=".88" fill="#858C91"/></svg>