<svg width="16" height="16" fill="none" xmlns="http://www.w3.org/2000/svg"><g clip-path="url(#a)" stroke="#ADB2B6" stroke-linecap="round" stroke-linejoin="round"><path d="M8 4.33a2 2 0 1 0 0-4 2 2 0 0 0 0 4z"/><path d="M15.67 13.67V15a.67.67 0 0 1-.67.67H1A.67.67 0 0 1 .33 15v-1.33L2.58 5.8a2.02 2.02 0 0 1 1.95-1.47h6.94a2.02 2.02 0 0 1 1.95 1.47l2.25 7.87z"/><path d="M7.67 7.67 5 10.33 7.67 13M5 13V7.67M11.67 9A1.33 1.33 0 0 0 9 9v2.67a1.33 1.33 0 1 0 2.67 0V11h-1"/></g><defs><clipPath id="a"><path fill="#fff" d="M0 0h16v16H0z"/></clipPath></defs></svg>