<!-- Generated by IcoMoon.io -->
<svg version="1.1" xmlns="http://www.w3.org/2000/svg" width="28" height="28" viewBox="0 0 28 28">
<title>map</title>
<path d="M8 0c0.266 0 0.5 0.234 0.5 0.5v23c0 0.187-0.109 0.359-0.266 0.438l-7.5 4c-0.078 0.047-0.156 0.063-0.234 0.063-0.266 0-0.5-0.234-0.5-0.5v-23c0-0.187 0.109-0.359 0.266-0.438l7.5-4c0.078-0.047 0.156-0.063 0.234-0.063zM27.5 0c0.266 0 0.5 0.234 0.5 0.5v23c0 0.187-0.109 0.359-0.266 0.438l-7.5 4c-0.078 0.047-0.156 0.063-0.234 0.063-0.266 0-0.5-0.234-0.5-0.5v-23c0-0.187 0.109-0.359 0.266-0.438l7.5-4c0.078-0.047 0.156-0.063 0.234-0.063zM10 0c0.078 0 0.156 0.016 0.219 0.047l8 4c0.172 0.094 0.281 0.266 0.281 0.453v23c0 0.266-0.234 0.5-0.5 0.5-0.078 0-0.156-0.016-0.219-0.047l-8-4c-0.172-0.094-0.281-0.266-0.281-0.453v-23c0-0.266 0.234-0.5 0.5-0.5z"></path>
</svg>
