<svg width="38" height="20" fill="none" xmlns="http://www.w3.org/2000/svg">
  <g clip-path="url(#a)">
    <path d="M.6 2.08c0-.54.44-.99.98-.99h21.46c.55 0 .99.45.99 1v11.16c0 .56-.45 1-1 1H1.59a.99.99 0 0 1-.99-1V2.08Z" stroke="#3EC227" stroke-width="1.5"/>
    <path d="M13.22 16.62h10.8" stroke="#858C91" stroke-width="1.5" stroke-linecap="round" stroke-linejoin="round"/>
    <path d="M26.25 15.82V7.59c0-.54.45-.99 1-.99h1.77a1 1 0 0 1 .77.37l2.68 3.3c.23.27.51.48.84.62l2.1.88c.17.08.33.2.43.37l1.4 2.1c.11.16.17.36.17.56v1.02c0 .55-.45.99-1 .99h-.4a.8.8 0 0 1-.8-.8 1.98 1.98 0 0 0-1.98-1.98H30.8a1.98 1.98 0 0 0-1.98 1.98.8.8 0 0 1-.8.8h-.78a.99.99 0 0 1-.99-1Z" stroke="#858C91" stroke-width="1.5"/>
    <path d="M3.26 12.65a.57.57 0 1 0 .13-1.13.57.57 0 0 0-.13 1.13Zm4.56 0a.57.57 0 1 0 .14-1.13.57.57 0 0 0-.14 1.13Zm4.57 0a.57.57 0 1 0 .13-1.13.57.57 0 0 0-.13 1.13Zm4.57 0a.57.57 0 1 0 .14-1.13.57.57 0 0 0-.14 1.13Zm4.57 0a.57.57 0 1 0 .13-1.13.57.57 0 0 0-.13 1.13Z" fill="#3EC227" stroke="#3EC227" stroke-width=".58"/>
    <path d="M10.2 18.47a1.49 1.49 0 1 0-2.1-2.1 1.49 1.49 0 0 0 2.1 2.1ZM33.4 18.02c.08-.2.1-.4.09-.6a1.49 1.49 0 1 0-2.97 0 1.49 1.49 0 0 0 2.89.6ZM26.44 4.58h1.71c.15 0 .26-.16.18-.3l-1.47-2.64a.2.2 0 0 0-.18-.1h-.24a.2.2 0 0 0-.2.2v2.64a.2.2 0 0 0 .2.2Z" stroke="#858C91" stroke-width="1.5"/>
  </g>
  <defs>
    <clipPath id="a">
      <path fill="#fff" transform="translate(0 .5)" d="M0 0h38v19H0z"/>
    </clipPath>
  </defs>
</svg>
